<mxfile host="app.diagrams.net" modified="2023-10-22T09:54:15.300Z" agent="Mozilla/5.0 (Windows NT 10.0; Win64; x64) AppleWebKit/537.36 (KHTML, like Gecko) Chrome/118.0.0.0 Safari/537.36 Edg/118.0.2088.57" etag="VbGZHVavN7QotmQBoA6a" version="22.0.6" type="google">
  <diagram name="Page-1" id="yjwb8_FeGXJeK1elJ5wr">
    <mxGraphModel grid="1" page="1" gridSize="10" guides="1" tooltips="1" connect="1" arrows="1" fold="1" pageScale="1" pageWidth="850" pageHeight="1100" math="0" shadow="0">
      <root>
        <mxCell id="0" />
        <mxCell id="1" parent="0" />
        <mxCell id="9v_Q3Rwq5RwcZCM3eaC2-4" style="edgeStyle=orthogonalEdgeStyle;rounded=0;orthogonalLoop=1;jettySize=auto;html=1;exitX=1;exitY=0.5;exitDx=0;exitDy=0;" edge="1" parent="1">
          <mxGeometry relative="1" as="geometry">
            <mxPoint x="-240" y="900" as="sourcePoint" />
            <mxPoint x="-240" y="900" as="targetPoint" />
          </mxGeometry>
        </mxCell>
        <mxCell id="hRhXeQrY2aHqV7PL9zjj-3" value="Printing Service" style="swimlane;whiteSpace=wrap;html=1;fillColor=#d5e8d4;strokeColor=default;swimlaneLine=1;glass=0;rounded=0;" vertex="1" parent="1">
          <mxGeometry x="-680" y="240" width="720" height="580" as="geometry" />
        </mxCell>
        <mxCell id="hRhXeQrY2aHqV7PL9zjj-9" value="View Printers" style="ellipse;whiteSpace=wrap;html=1;" vertex="1" parent="hRhXeQrY2aHqV7PL9zjj-3">
          <mxGeometry x="10" y="340" width="120" height="40" as="geometry" />
        </mxCell>
        <mxCell id="hRhXeQrY2aHqV7PL9zjj-12" value="Submit Print Job" style="ellipse;whiteSpace=wrap;html=1;" vertex="1" parent="hRhXeQrY2aHqV7PL9zjj-3">
          <mxGeometry x="20" y="92.5" width="130" height="45" as="geometry" />
        </mxCell>
        <mxCell id="hRhXeQrY2aHqV7PL9zjj-19" value="Get Printers Policies" style="ellipse;whiteSpace=wrap;html=1;" vertex="1" parent="hRhXeQrY2aHqV7PL9zjj-3">
          <mxGeometry x="200" y="360" width="140" height="50" as="geometry" />
        </mxCell>
        <mxCell id="hRhXeQrY2aHqV7PL9zjj-22" value="&amp;lt;&amp;lt;Include&amp;gt;&amp;gt;" style="endArrow=classic;html=1;rounded=0;exitX=1;exitY=1;exitDx=0;exitDy=0;entryX=0;entryY=0.5;entryDx=0;entryDy=0;dashed=1;" edge="1" parent="hRhXeQrY2aHqV7PL9zjj-3" source="hRhXeQrY2aHqV7PL9zjj-9" target="hRhXeQrY2aHqV7PL9zjj-19">
          <mxGeometry width="50" height="50" relative="1" as="geometry">
            <mxPoint x="550" y="450" as="sourcePoint" />
            <mxPoint x="600" y="400" as="targetPoint" />
          </mxGeometry>
        </mxCell>
        <mxCell id="hRhXeQrY2aHqV7PL9zjj-23" value="List Printers in Network" style="ellipse;whiteSpace=wrap;html=1;" vertex="1" parent="hRhXeQrY2aHqV7PL9zjj-3">
          <mxGeometry x="315" y="220" width="150" height="50" as="geometry" />
        </mxCell>
        <mxCell id="hRhXeQrY2aHqV7PL9zjj-24" value="&amp;lt;&amp;lt;Include&amp;gt;&amp;gt;" style="endArrow=classic;html=1;rounded=0;exitX=1;exitY=0;exitDx=0;exitDy=0;dashed=1;" edge="1" parent="hRhXeQrY2aHqV7PL9zjj-3" source="hRhXeQrY2aHqV7PL9zjj-9" target="hRhXeQrY2aHqV7PL9zjj-23">
          <mxGeometry width="50" height="50" relative="1" as="geometry">
            <mxPoint x="190" y="220" as="sourcePoint" />
            <mxPoint x="310" y="200" as="targetPoint" />
          </mxGeometry>
        </mxCell>
        <mxCell id="hRhXeQrY2aHqV7PL9zjj-44" value="Validate Printer Policies" style="ellipse;whiteSpace=wrap;html=1;" vertex="1" parent="hRhXeQrY2aHqV7PL9zjj-3">
          <mxGeometry x="310" y="290" width="140" height="40" as="geometry" />
        </mxCell>
        <mxCell id="hRhXeQrY2aHqV7PL9zjj-28" value="Validate Page Balance" style="ellipse;whiteSpace=wrap;html=1;" vertex="1" parent="hRhXeQrY2aHqV7PL9zjj-3">
          <mxGeometry x="230" y="30" width="140" height="40" as="geometry" />
        </mxCell>
        <mxCell id="hRhXeQrY2aHqV7PL9zjj-29" value="&amp;lt;&amp;lt;Include&amp;gt;&amp;gt;" style="endArrow=classic;html=1;rounded=0;exitX=1;exitY=0;exitDx=0;exitDy=0;dashed=1;entryX=0;entryY=1;entryDx=0;entryDy=0;" edge="1" parent="hRhXeQrY2aHqV7PL9zjj-3" source="hRhXeQrY2aHqV7PL9zjj-12" target="hRhXeQrY2aHqV7PL9zjj-28">
          <mxGeometry width="50" height="50" relative="1" as="geometry">
            <mxPoint x="240" y="160" as="sourcePoint" />
            <mxPoint x="420" y="173" as="targetPoint" />
          </mxGeometry>
        </mxCell>
        <mxCell id="hRhXeQrY2aHqV7PL9zjj-45" value="&amp;lt;&amp;lt;Include&amp;gt;&amp;gt;" style="endArrow=classic;html=1;rounded=0;dashed=1;entryX=0;entryY=0.5;entryDx=0;entryDy=0;" edge="1" parent="hRhXeQrY2aHqV7PL9zjj-3" source="hRhXeQrY2aHqV7PL9zjj-12" target="hRhXeQrY2aHqV7PL9zjj-44">
          <mxGeometry width="50" height="50" relative="1" as="geometry">
            <mxPoint x="212" y="117" as="sourcePoint" />
            <mxPoint x="251" y="84" as="targetPoint" />
          </mxGeometry>
        </mxCell>
        <mxCell id="hRhXeQrY2aHqV7PL9zjj-46" value="View Current Printing Status" style="ellipse;whiteSpace=wrap;html=1;" vertex="1" parent="hRhXeQrY2aHqV7PL9zjj-3">
          <mxGeometry x="430" y="50" width="110" height="50" as="geometry" />
        </mxCell>
        <mxCell id="hRhXeQrY2aHqV7PL9zjj-48" value="&amp;lt;&amp;lt;Extend&amp;gt;&amp;gt;" style="endArrow=classic;html=1;rounded=0;dashed=1;exitX=0;exitY=0.5;exitDx=0;exitDy=0;" edge="1" parent="hRhXeQrY2aHqV7PL9zjj-3" source="hRhXeQrY2aHqV7PL9zjj-46" target="hRhXeQrY2aHqV7PL9zjj-12">
          <mxGeometry x="-0.0017" width="50" height="50" relative="1" as="geometry">
            <mxPoint x="185" y="154" as="sourcePoint" />
            <mxPoint x="420" y="50" as="targetPoint" />
            <mxPoint as="offset" />
          </mxGeometry>
        </mxCell>
        <mxCell id="hRhXeQrY2aHqV7PL9zjj-51" style="edgeStyle=orthogonalEdgeStyle;rounded=0;orthogonalLoop=1;jettySize=auto;html=1;exitX=0.5;exitY=1;exitDx=0;exitDy=0;" edge="1" parent="hRhXeQrY2aHqV7PL9zjj-3" source="hRhXeQrY2aHqV7PL9zjj-28" target="hRhXeQrY2aHqV7PL9zjj-28">
          <mxGeometry relative="1" as="geometry" />
        </mxCell>
        <mxCell id="hRhXeQrY2aHqV7PL9zjj-56" value="View Printing Logs" style="ellipse;whiteSpace=wrap;html=1;" vertex="1" parent="hRhXeQrY2aHqV7PL9zjj-3">
          <mxGeometry x="100" y="500" width="125" height="50" as="geometry" />
        </mxCell>
        <mxCell id="hRhXeQrY2aHqV7PL9zjj-66" value="&amp;lt;&amp;lt;Extend&amp;gt;&amp;gt;" style="endArrow=classic;html=1;rounded=0;dashed=1;entryX=0.5;entryY=0;entryDx=0;entryDy=0;exitX=0;exitY=1;exitDx=0;exitDy=0;" edge="1" parent="hRhXeQrY2aHqV7PL9zjj-3" source="hRhXeQrY2aHqV7PL9zjj-44" target="hRhXeQrY2aHqV7PL9zjj-19">
          <mxGeometry x="-0.0095" width="50" height="50" relative="1" as="geometry">
            <mxPoint x="165" y="129" as="sourcePoint" />
            <mxPoint x="420" y="125" as="targetPoint" />
            <mxPoint as="offset" />
          </mxGeometry>
        </mxCell>
        <mxCell id="hRhXeQrY2aHqV7PL9zjj-67" value="Manage Printers" style="ellipse;whiteSpace=wrap;html=1;" vertex="1" parent="hRhXeQrY2aHqV7PL9zjj-3">
          <mxGeometry x="290" y="470" width="140" height="50" as="geometry" />
        </mxCell>
        <mxCell id="hRhXeQrY2aHqV7PL9zjj-88" value="&amp;lt;&amp;lt;Extend&amp;gt;&amp;gt;" style="endArrow=classic;html=1;rounded=0;dashed=1;entryX=0.5;entryY=1;entryDx=0;entryDy=0;exitX=0;exitY=0.5;exitDx=0;exitDy=0;" edge="1" parent="hRhXeQrY2aHqV7PL9zjj-3" source="hRhXeQrY2aHqV7PL9zjj-67" target="hRhXeQrY2aHqV7PL9zjj-9">
          <mxGeometry x="-0.0017" width="50" height="50" relative="1" as="geometry">
            <mxPoint x="421" y="274" as="sourcePoint" />
            <mxPoint x="365" y="310" as="targetPoint" />
            <mxPoint as="offset" />
          </mxGeometry>
        </mxCell>
        <mxCell id="hRhXeQrY2aHqV7PL9zjj-90" value="Manage Printer Policies" style="ellipse;whiteSpace=wrap;html=1;" vertex="1" parent="hRhXeQrY2aHqV7PL9zjj-3">
          <mxGeometry x="580" y="360" width="150" height="50" as="geometry" />
        </mxCell>
        <mxCell id="hRhXeQrY2aHqV7PL9zjj-91" value="&amp;lt;&amp;lt;Extend&amp;gt;&amp;gt;" style="endArrow=classic;html=1;rounded=0;dashed=1;entryX=1;entryY=1;entryDx=0;entryDy=0;exitX=0;exitY=0.5;exitDx=0;exitDy=0;" edge="1" parent="hRhXeQrY2aHqV7PL9zjj-3" source="hRhXeQrY2aHqV7PL9zjj-90" target="hRhXeQrY2aHqV7PL9zjj-19">
          <mxGeometry x="-0.1486" y="-9" width="50" height="50" relative="1" as="geometry">
            <mxPoint x="380" y="445" as="sourcePoint" />
            <mxPoint x="150" y="280" as="targetPoint" />
            <mxPoint as="offset" />
          </mxGeometry>
        </mxCell>
        <mxCell id="hRhXeQrY2aHqV7PL9zjj-127" value="Set Default Page Balance&lt;br&gt;&amp;amp; Set Date" style="ellipse;whiteSpace=wrap;html=1;" vertex="1" parent="hRhXeQrY2aHqV7PL9zjj-3">
          <mxGeometry x="490" y="430" width="150" height="50" as="geometry" />
        </mxCell>
        <mxCell id="hRhXeQrY2aHqV7PL9zjj-130" value="Upload File" style="ellipse;whiteSpace=wrap;html=1;" vertex="1" parent="hRhXeQrY2aHqV7PL9zjj-3">
          <mxGeometry x="245" y="137.5" width="110" height="40" as="geometry" />
        </mxCell>
        <mxCell id="hRhXeQrY2aHqV7PL9zjj-131" value="&amp;lt;&amp;lt;Include&amp;gt;&amp;gt;" style="endArrow=classic;html=1;rounded=0;exitX=1;exitY=1;exitDx=0;exitDy=0;dashed=1;entryX=0;entryY=0.5;entryDx=0;entryDy=0;" edge="1" parent="hRhXeQrY2aHqV7PL9zjj-3" source="hRhXeQrY2aHqV7PL9zjj-12" target="hRhXeQrY2aHqV7PL9zjj-130">
          <mxGeometry width="50" height="50" relative="1" as="geometry">
            <mxPoint x="141" y="109" as="sourcePoint" />
            <mxPoint x="261" y="74" as="targetPoint" />
          </mxGeometry>
        </mxCell>
        <mxCell id="hRhXeQrY2aHqV7PL9zjj-132" value="Manage Uploaded Files" style="ellipse;whiteSpace=wrap;html=1;" vertex="1" parent="hRhXeQrY2aHqV7PL9zjj-3">
          <mxGeometry x="450" y="137.5" width="140" height="40" as="geometry" />
        </mxCell>
        <mxCell id="hRhXeQrY2aHqV7PL9zjj-133" value="&amp;lt;&amp;lt;Extend&amp;gt;&amp;gt;" style="endArrow=classic;html=1;rounded=0;dashed=1;exitX=0;exitY=0.5;exitDx=0;exitDy=0;entryX=1;entryY=0.5;entryDx=0;entryDy=0;" edge="1" parent="hRhXeQrY2aHqV7PL9zjj-3" source="hRhXeQrY2aHqV7PL9zjj-132" target="hRhXeQrY2aHqV7PL9zjj-130">
          <mxGeometry x="-0.0017" width="50" height="50" relative="1" as="geometry">
            <mxPoint x="450" y="95" as="sourcePoint" />
            <mxPoint x="158" y="120" as="targetPoint" />
            <mxPoint as="offset" />
          </mxGeometry>
        </mxCell>
        <mxCell id="hRhXeQrY2aHqV7PL9zjj-134" value="Select Printing&lt;br&gt;Properties" style="ellipse;whiteSpace=wrap;html=1;" vertex="1" parent="hRhXeQrY2aHqV7PL9zjj-3">
          <mxGeometry x="40" y="190" width="120" height="40" as="geometry" />
        </mxCell>
        <mxCell id="hRhXeQrY2aHqV7PL9zjj-135" value="&amp;lt;&amp;lt;include&amp;gt;&amp;gt;" style="endArrow=classic;html=1;rounded=0;exitX=0.5;exitY=1;exitDx=0;exitDy=0;dashed=1;entryX=0.5;entryY=0;entryDx=0;entryDy=0;" edge="1" parent="hRhXeQrY2aHqV7PL9zjj-3" source="hRhXeQrY2aHqV7PL9zjj-12" target="hRhXeQrY2aHqV7PL9zjj-134">
          <mxGeometry width="50" height="50" relative="1" as="geometry">
            <mxPoint x="141" y="141" as="sourcePoint" />
            <mxPoint x="255" y="168" as="targetPoint" />
          </mxGeometry>
        </mxCell>
        <mxCell id="hRhXeQrY2aHqV7PL9zjj-136" value="&amp;lt;&amp;lt;Include&amp;gt;&amp;gt;" style="endArrow=classic;html=1;rounded=0;exitX=0.5;exitY=1;exitDx=0;exitDy=0;dashed=1;entryX=0;entryY=0;entryDx=0;entryDy=0;" edge="1" parent="hRhXeQrY2aHqV7PL9zjj-3" source="hRhXeQrY2aHqV7PL9zjj-134" target="hRhXeQrY2aHqV7PL9zjj-19">
          <mxGeometry width="50" height="50" relative="1" as="geometry">
            <mxPoint x="95" y="148" as="sourcePoint" />
            <mxPoint x="110" y="200" as="targetPoint" />
          </mxGeometry>
        </mxCell>
        <mxCell id="3JWlbJhxmjEV3d1sbLk1-1" value="&amp;lt;&amp;lt;Include&amp;gt;&amp;gt;" style="endArrow=classic;html=1;rounded=0;dashed=1;entryX=0.5;entryY=0;entryDx=0;entryDy=0;exitX=0.5;exitY=1;exitDx=0;exitDy=0;" edge="1" parent="hRhXeQrY2aHqV7PL9zjj-3" source="hRhXeQrY2aHqV7PL9zjj-90" target="hRhXeQrY2aHqV7PL9zjj-127">
          <mxGeometry x="-0.4235" y="4" width="50" height="50" relative="1" as="geometry">
            <mxPoint x="590" y="395" as="sourcePoint" />
            <mxPoint x="330" y="412" as="targetPoint" />
            <mxPoint as="offset" />
          </mxGeometry>
        </mxCell>
        <mxCell id="hRhXeQrY2aHqV7PL9zjj-11" style="rounded=0;orthogonalLoop=1;jettySize=auto;html=1;endArrow=none;endFill=0;edgeStyle=orthogonalEdgeStyle;" edge="1" parent="1" source="hRhXeQrY2aHqV7PL9zjj-6" target="hRhXeQrY2aHqV7PL9zjj-9">
          <mxGeometry relative="1" as="geometry">
            <Array as="points">
              <mxPoint x="-730" y="320" />
              <mxPoint x="-730" y="600" />
            </Array>
          </mxGeometry>
        </mxCell>
        <mxCell id="hRhXeQrY2aHqV7PL9zjj-6" value="Student" style="shape=umlActor;verticalLabelPosition=bottom;verticalAlign=top;html=1;outlineConnect=0;" vertex="1" parent="1">
          <mxGeometry x="-790" y="280" width="40" height="60" as="geometry" />
        </mxCell>
        <mxCell id="hRhXeQrY2aHqV7PL9zjj-14" value="" style="endArrow=none;html=1;rounded=0;entryX=0;entryY=0.5;entryDx=0;entryDy=0;edgeStyle=orthogonalEdgeStyle;" edge="1" parent="1" source="hRhXeQrY2aHqV7PL9zjj-6" target="hRhXeQrY2aHqV7PL9zjj-12">
          <mxGeometry width="50" height="50" relative="1" as="geometry">
            <mxPoint x="-190" y="550" as="sourcePoint" />
            <mxPoint x="-140" y="500" as="targetPoint" />
            <Array as="points">
              <mxPoint x="-690" y="330" />
              <mxPoint x="-690" y="360" />
              <mxPoint x="-660" y="360" />
            </Array>
          </mxGeometry>
        </mxCell>
        <mxCell id="hRhXeQrY2aHqV7PL9zjj-25" value="Print&lt;br&gt;Server" style="shape=umlActor;verticalLabelPosition=bottom;verticalAlign=top;html=1;outlineConnect=0;" vertex="1" parent="1">
          <mxGeometry x="90" y="325" width="30" height="60" as="geometry" />
        </mxCell>
        <mxCell id="hRhXeQrY2aHqV7PL9zjj-26" value="" style="endArrow=none;html=1;rounded=0;exitX=1;exitY=0.5;exitDx=0;exitDy=0;" edge="1" parent="1" source="hRhXeQrY2aHqV7PL9zjj-23" target="hRhXeQrY2aHqV7PL9zjj-25">
          <mxGeometry width="50" height="50" relative="1" as="geometry">
            <mxPoint x="-100" y="610" as="sourcePoint" />
            <mxPoint x="-50" y="560" as="targetPoint" />
          </mxGeometry>
        </mxCell>
        <mxCell id="hRhXeQrY2aHqV7PL9zjj-31" value="" style="endArrow=none;html=1;rounded=0;exitX=1;exitY=0.5;exitDx=0;exitDy=0;" edge="1" parent="1" source="hRhXeQrY2aHqV7PL9zjj-12" target="hRhXeQrY2aHqV7PL9zjj-25">
          <mxGeometry width="50" height="50" relative="1" as="geometry">
            <mxPoint x="-110" y="610" as="sourcePoint" />
            <mxPoint x="-60" y="560" as="targetPoint" />
          </mxGeometry>
        </mxCell>
        <mxCell id="hRhXeQrY2aHqV7PL9zjj-32" value="Payment Service" style="swimlane;whiteSpace=wrap;html=1;fillColor=#ffe6cc;strokeColor=#000000;" vertex="1" parent="1">
          <mxGeometry x="-470" y="-60" width="510" height="280" as="geometry" />
        </mxCell>
        <mxCell id="hRhXeQrY2aHqV7PL9zjj-33" value="Get Current&lt;br&gt;&amp;nbsp;Page Balance" style="ellipse;whiteSpace=wrap;html=1;" vertex="1" parent="hRhXeQrY2aHqV7PL9zjj-32">
          <mxGeometry x="30" y="200" width="130" height="40" as="geometry" />
        </mxCell>
        <mxCell id="hRhXeQrY2aHqV7PL9zjj-138" value="&amp;lt;&amp;lt;Extend&amp;gt;&amp;gt;" style="rounded=0;orthogonalLoop=1;jettySize=auto;html=1;exitX=1;exitY=1;exitDx=0;exitDy=0;entryX=0.5;entryY=0;entryDx=0;entryDy=0;" edge="1" parent="hRhXeQrY2aHqV7PL9zjj-32" source="hRhXeQrY2aHqV7PL9zjj-39" target="hRhXeQrY2aHqV7PL9zjj-118">
          <mxGeometry x="0.0012" relative="1" as="geometry">
            <mxPoint as="offset" />
          </mxGeometry>
        </mxCell>
        <mxCell id="hRhXeQrY2aHqV7PL9zjj-39" value="Purchase Page Balance" style="ellipse;whiteSpace=wrap;html=1;" vertex="1" parent="hRhXeQrY2aHqV7PL9zjj-32">
          <mxGeometry x="30" y="130" width="120" height="40" as="geometry" />
        </mxCell>
        <mxCell id="hRhXeQrY2aHqV7PL9zjj-41" value="&amp;nbsp;Transaction&lt;br&gt;Authorization" style="ellipse;whiteSpace=wrap;html=1;" vertex="1" parent="hRhXeQrY2aHqV7PL9zjj-32">
          <mxGeometry x="320" y="100" width="140" height="50" as="geometry" />
        </mxCell>
        <mxCell id="hRhXeQrY2aHqV7PL9zjj-43" value="&amp;lt;&amp;lt;Include&amp;gt;&amp;gt;" style="endArrow=classic;html=1;rounded=0;exitX=1;exitY=0.5;exitDx=0;exitDy=0;dashed=1;entryX=0;entryY=0.5;entryDx=0;entryDy=0;" edge="1" parent="hRhXeQrY2aHqV7PL9zjj-32" source="hRhXeQrY2aHqV7PL9zjj-39" target="hRhXeQrY2aHqV7PL9zjj-41">
          <mxGeometry width="50" height="50" relative="1" as="geometry">
            <mxPoint x="130" y="290" as="sourcePoint" />
            <mxPoint x="175" y="210" as="targetPoint" />
          </mxGeometry>
        </mxCell>
        <mxCell id="hRhXeQrY2aHqV7PL9zjj-118" value="Update Page Balance" style="ellipse;whiteSpace=wrap;html=1;" vertex="1" parent="hRhXeQrY2aHqV7PL9zjj-32">
          <mxGeometry x="200" y="220" width="130" height="40" as="geometry" />
        </mxCell>
        <mxCell id="hRhXeQrY2aHqV7PL9zjj-164" value="View Payment Logs" style="ellipse;whiteSpace=wrap;html=1;" vertex="1" parent="hRhXeQrY2aHqV7PL9zjj-32">
          <mxGeometry x="80" y="50" width="120" height="50" as="geometry" />
        </mxCell>
        <mxCell id="hRhXeQrY2aHqV7PL9zjj-34" value="" style="endArrow=none;html=1;rounded=0;entryX=0;entryY=0.5;entryDx=0;entryDy=0;edgeStyle=orthogonalEdgeStyle;" edge="1" parent="1" source="hRhXeQrY2aHqV7PL9zjj-6" target="hRhXeQrY2aHqV7PL9zjj-33">
          <mxGeometry width="50" height="50" relative="1" as="geometry">
            <mxPoint x="-707" y="276" as="sourcePoint" />
            <mxPoint x="-20" y="260" as="targetPoint" />
            <Array as="points">
              <mxPoint x="-710" y="300" />
              <mxPoint x="-710" y="180" />
            </Array>
          </mxGeometry>
        </mxCell>
        <mxCell id="hRhXeQrY2aHqV7PL9zjj-37" value="BKPay" style="shape=umlActor;verticalLabelPosition=bottom;verticalAlign=top;html=1;outlineConnect=0;" vertex="1" parent="1">
          <mxGeometry x="120" width="30" height="60" as="geometry" />
        </mxCell>
        <mxCell id="hRhXeQrY2aHqV7PL9zjj-40" value="" style="endArrow=none;html=1;rounded=0;entryX=0;entryY=0.5;entryDx=0;entryDy=0;edgeStyle=orthogonalEdgeStyle;" edge="1" parent="1" source="hRhXeQrY2aHqV7PL9zjj-6" target="hRhXeQrY2aHqV7PL9zjj-39">
          <mxGeometry width="50" height="50" relative="1" as="geometry">
            <mxPoint x="-230" y="240" as="sourcePoint" />
            <mxPoint x="-180" y="190" as="targetPoint" />
            <Array as="points">
              <mxPoint x="-690" y="310" />
              <mxPoint x="-690" y="45" />
            </Array>
          </mxGeometry>
        </mxCell>
        <mxCell id="hRhXeQrY2aHqV7PL9zjj-42" value="" style="endArrow=none;html=1;rounded=0;exitX=1;exitY=0.5;exitDx=0;exitDy=0;" edge="1" parent="1" source="hRhXeQrY2aHqV7PL9zjj-41" target="hRhXeQrY2aHqV7PL9zjj-37">
          <mxGeometry width="50" height="50" relative="1" as="geometry">
            <mxPoint x="-230" y="240" as="sourcePoint" />
            <mxPoint x="-180" y="190" as="targetPoint" />
          </mxGeometry>
        </mxCell>
        <mxCell id="hRhXeQrY2aHqV7PL9zjj-35" value="&amp;lt;&amp;lt;include&amp;gt;&amp;gt;" style="endArrow=classic;html=1;rounded=0;exitX=0.5;exitY=0;exitDx=0;exitDy=0;dashed=1;entryX=0.5;entryY=1;entryDx=0;entryDy=0;" edge="1" parent="1" source="hRhXeQrY2aHqV7PL9zjj-28" target="hRhXeQrY2aHqV7PL9zjj-33">
          <mxGeometry width="50" height="50" relative="1" as="geometry">
            <mxPoint x="-458" y="362" as="sourcePoint" />
            <mxPoint x="-382" y="164" as="targetPoint" />
          </mxGeometry>
        </mxCell>
        <mxCell id="baDIOxzghW0TllfMZs_H-3" value="User Authentication Service" style="swimlane;whiteSpace=wrap;html=1;fillColor=#dae8fc;strokeColor=#6c8ebf;" vertex="1" parent="1">
          <mxGeometry x="-450" y="-320" width="490" height="240" as="geometry" />
        </mxCell>
        <mxCell id="baDIOxzghW0TllfMZs_H-4" value="Logout" style="ellipse;whiteSpace=wrap;html=1;" vertex="1" parent="baDIOxzghW0TllfMZs_H-3">
          <mxGeometry x="70" y="150" width="130" height="40" as="geometry" />
        </mxCell>
        <mxCell id="baDIOxzghW0TllfMZs_H-5" value="Login" style="ellipse;whiteSpace=wrap;html=1;" vertex="1" parent="baDIOxzghW0TllfMZs_H-3">
          <mxGeometry x="90" y="50" width="120" height="40" as="geometry" />
        </mxCell>
        <mxCell id="hRhXeQrY2aHqV7PL9zjj-124" style="edgeStyle=orthogonalEdgeStyle;rounded=0;orthogonalLoop=1;jettySize=auto;html=1;exitX=1;exitY=0.3333333333333333;exitDx=0;exitDy=0;exitPerimeter=0;endArrow=none;endFill=0;entryX=1;entryY=1;entryDx=0;entryDy=0;" edge="1" parent="baDIOxzghW0TllfMZs_H-3" target="baDIOxzghW0TllfMZs_H-5">
          <mxGeometry relative="1" as="geometry">
            <Array as="points">
              <mxPoint x="670" y="1070" />
              <mxPoint x="670" y="110" />
              <mxPoint x="192" y="110" />
            </Array>
            <mxPoint x="210.000000000005" y="110" as="targetPoint" />
            <mxPoint x="640" y="1070" as="sourcePoint" />
          </mxGeometry>
        </mxCell>
        <mxCell id="hRhXeQrY2aHqV7PL9zjj-123" style="edgeStyle=orthogonalEdgeStyle;rounded=0;orthogonalLoop=1;jettySize=auto;html=1;exitX=0.5;exitY=0.5;exitDx=0;exitDy=0;exitPerimeter=0;endArrow=none;endFill=0;" edge="1" parent="1" source="hRhXeQrY2aHqV7PL9zjj-50" target="baDIOxzghW0TllfMZs_H-4">
          <mxGeometry relative="1" as="geometry">
            <Array as="points">
              <mxPoint x="270" y="730" />
              <mxPoint x="270" y="-140" />
            </Array>
          </mxGeometry>
        </mxCell>
        <mxCell id="hRhXeQrY2aHqV7PL9zjj-50" value="Student Printing&lt;br&gt;Service Officer" style="shape=umlActor;verticalLabelPosition=bottom;verticalAlign=top;html=1;outlineConnect=0;" vertex="1" parent="1">
          <mxGeometry x="150" y="700" width="30" height="60" as="geometry" />
        </mxCell>
        <mxCell id="baDIOxzghW0TllfMZs_H-12" value="" style="endArrow=none;html=1;rounded=0;entryX=0;entryY=0.5;entryDx=0;entryDy=0;exitX=0.5;exitY=0;exitDx=0;exitDy=0;exitPerimeter=0;edgeStyle=orthogonalEdgeStyle;" edge="1" parent="1" source="hRhXeQrY2aHqV7PL9zjj-6" target="baDIOxzghW0TllfMZs_H-5">
          <mxGeometry width="50" height="50" relative="1" as="geometry">
            <mxPoint x="-700" y="260" as="sourcePoint" />
            <mxPoint x="-50" y="-120" as="targetPoint" />
            <Array as="points">
              <mxPoint x="-770" y="-200" />
              <mxPoint x="-380" y="-200" />
              <mxPoint x="-380" y="-250" />
            </Array>
          </mxGeometry>
        </mxCell>
        <mxCell id="baDIOxzghW0TllfMZs_H-13" value="" style="endArrow=none;html=1;rounded=0;entryX=0;entryY=0.5;entryDx=0;entryDy=0;exitX=0.75;exitY=0.1;exitDx=0;exitDy=0;exitPerimeter=0;edgeStyle=orthogonalEdgeStyle;" edge="1" parent="1" source="hRhXeQrY2aHqV7PL9zjj-6" target="baDIOxzghW0TllfMZs_H-4">
          <mxGeometry width="50" height="50" relative="1" as="geometry">
            <mxPoint x="-690" y="260" as="sourcePoint" />
            <mxPoint x="-50" y="10" as="targetPoint" />
            <Array as="points">
              <mxPoint x="-740" y="286" />
              <mxPoint x="-740" y="-140" />
            </Array>
          </mxGeometry>
        </mxCell>
        <mxCell id="hRhXeQrY2aHqV7PL9zjj-52" value="HCMUT_SSO" style="shape=umlActor;verticalLabelPosition=bottom;verticalAlign=top;html=1;outlineConnect=0;" vertex="1" parent="1">
          <mxGeometry x="130" y="-310" width="30" height="60" as="geometry" />
        </mxCell>
        <mxCell id="hRhXeQrY2aHqV7PL9zjj-55" value="" style="endArrow=none;html=1;rounded=0;" edge="1" parent="1" source="baDIOxzghW0TllfMZs_H-5" target="hRhXeQrY2aHqV7PL9zjj-52">
          <mxGeometry width="50" height="50" relative="1" as="geometry">
            <mxPoint x="-270" y="-240" as="sourcePoint" />
            <mxPoint x="-180" y="-140" as="targetPoint" />
          </mxGeometry>
        </mxCell>
        <mxCell id="hRhXeQrY2aHqV7PL9zjj-58" value="" style="endArrow=none;html=1;rounded=0;entryX=0;entryY=0.5;entryDx=0;entryDy=0;edgeStyle=orthogonalEdgeStyle;" edge="1" parent="1" source="hRhXeQrY2aHqV7PL9zjj-6" target="hRhXeQrY2aHqV7PL9zjj-56">
          <mxGeometry width="50" height="50" relative="1" as="geometry">
            <mxPoint x="-130" y="560" as="sourcePoint" />
            <mxPoint x="-80" y="510" as="targetPoint" />
            <Array as="points">
              <mxPoint x="-770" y="765" />
            </Array>
          </mxGeometry>
        </mxCell>
        <mxCell id="hRhXeQrY2aHqV7PL9zjj-60" value="" style="endArrow=none;html=1;rounded=0;entryX=0.954;entryY=0.666;entryDx=0;entryDy=0;entryPerimeter=0;exitX=0.5;exitY=0.5;exitDx=0;exitDy=0;exitPerimeter=0;edgeStyle=orthogonalEdgeStyle;" edge="1" parent="1" source="hRhXeQrY2aHqV7PL9zjj-50" target="hRhXeQrY2aHqV7PL9zjj-56">
          <mxGeometry width="50" height="50" relative="1" as="geometry">
            <mxPoint x="-80" y="810" as="sourcePoint" />
            <mxPoint x="-30" y="760" as="targetPoint" />
            <Array as="points">
              <mxPoint x="110" y="730" />
              <mxPoint x="110" y="773" />
            </Array>
          </mxGeometry>
        </mxCell>
        <mxCell id="hRhXeQrY2aHqV7PL9zjj-62" value="" style="endArrow=none;html=1;rounded=0;exitX=1;exitY=0;exitDx=0;exitDy=0;entryX=0.5;entryY=0.5;entryDx=0;entryDy=0;entryPerimeter=0;" edge="1" parent="1" source="hRhXeQrY2aHqV7PL9zjj-56" target="hRhXeQrY2aHqV7PL9zjj-25">
          <mxGeometry width="50" height="50" relative="1" as="geometry">
            <mxPoint x="-489.915" y="716.8000000000002" as="sourcePoint" />
            <mxPoint x="101.46000000000001" y="410" as="targetPoint" />
            <Array as="points">
              <mxPoint x="-170" y="560" />
            </Array>
          </mxGeometry>
        </mxCell>
        <mxCell id="hRhXeQrY2aHqV7PL9zjj-69" value="" style="endArrow=none;html=1;rounded=0;exitX=0;exitY=0.3333333333333333;exitDx=0;exitDy=0;exitPerimeter=0;edgeStyle=orthogonalEdgeStyle;" edge="1" parent="1" source="hRhXeQrY2aHqV7PL9zjj-50" target="hRhXeQrY2aHqV7PL9zjj-67">
          <mxGeometry width="50" height="50" relative="1" as="geometry">
            <mxPoint x="-20" y="680" as="sourcePoint" />
            <mxPoint x="30" y="630" as="targetPoint" />
            <Array as="points">
              <mxPoint x="150" y="750" />
            </Array>
          </mxGeometry>
        </mxCell>
        <mxCell id="hRhXeQrY2aHqV7PL9zjj-70" value="" style="endArrow=none;html=1;rounded=0;entryX=0.857;entryY=0.2;entryDx=0;entryDy=0;entryPerimeter=0;exitX=0.5;exitY=0.5;exitDx=0;exitDy=0;exitPerimeter=0;" edge="1" parent="1" source="hRhXeQrY2aHqV7PL9zjj-25" target="hRhXeQrY2aHqV7PL9zjj-67">
          <mxGeometry width="50" height="50" relative="1" as="geometry">
            <mxPoint x="150" y="410.07692307692287" as="sourcePoint" />
            <mxPoint x="-220" y="670" as="targetPoint" />
          </mxGeometry>
        </mxCell>
        <mxCell id="hRhXeQrY2aHqV7PL9zjj-92" value="" style="endArrow=none;html=1;rounded=0;exitX=1;exitY=0.5;exitDx=0;exitDy=0;entryX=0.75;entryY=0.1;entryDx=0;entryDy=0;entryPerimeter=0;edgeStyle=orthogonalEdgeStyle;" edge="1" parent="1" source="hRhXeQrY2aHqV7PL9zjj-90" target="hRhXeQrY2aHqV7PL9zjj-50">
          <mxGeometry width="50" height="50" relative="1" as="geometry">
            <mxPoint x="40" y="780" as="sourcePoint" />
            <mxPoint x="90" y="730" as="targetPoint" />
          </mxGeometry>
        </mxCell>
        <mxCell id="hRhXeQrY2aHqV7PL9zjj-94" value="Reporting Service" style="swimlane;whiteSpace=wrap;html=1;fillColor=#e1d5e7;strokeColor=#000000;" vertex="1" parent="1">
          <mxGeometry x="-570" y="840" width="510" height="240" as="geometry" />
        </mxCell>
        <mxCell id="hRhXeQrY2aHqV7PL9zjj-95" value="Generate reports" style="ellipse;whiteSpace=wrap;html=1;" vertex="1" parent="hRhXeQrY2aHqV7PL9zjj-94">
          <mxGeometry x="105" y="40" width="120" height="50" as="geometry" />
        </mxCell>
        <mxCell id="hRhXeQrY2aHqV7PL9zjj-98" value="View reports" style="ellipse;whiteSpace=wrap;html=1;" vertex="1" parent="hRhXeQrY2aHqV7PL9zjj-94">
          <mxGeometry x="340" y="40" width="120" height="50" as="geometry" />
        </mxCell>
        <mxCell id="hRhXeQrY2aHqV7PL9zjj-99" value="&amp;lt;&amp;lt;Extend&amp;gt;&amp;gt;" style="endArrow=classic;html=1;rounded=0;dashed=1;entryX=0;entryY=0.5;entryDx=0;entryDy=0;exitX=1;exitY=0.5;exitDx=0;exitDy=0;" edge="1" parent="hRhXeQrY2aHqV7PL9zjj-94" source="hRhXeQrY2aHqV7PL9zjj-95" target="hRhXeQrY2aHqV7PL9zjj-98">
          <mxGeometry x="-0.0339" y="-5" width="50" height="50" relative="1" as="geometry">
            <mxPoint x="270" y="140" as="sourcePoint" />
            <mxPoint x="274" y="-187" as="targetPoint" />
            <mxPoint as="offset" />
          </mxGeometry>
        </mxCell>
        <mxCell id="hRhXeQrY2aHqV7PL9zjj-102" value="Generate monthly Reports" style="ellipse;whiteSpace=wrap;html=1;" vertex="1" parent="hRhXeQrY2aHqV7PL9zjj-94">
          <mxGeometry x="30" y="150" width="130" height="50" as="geometry" />
        </mxCell>
        <mxCell id="hRhXeQrY2aHqV7PL9zjj-103" value="Generate weekly Reports" style="ellipse;whiteSpace=wrap;html=1;" vertex="1" parent="hRhXeQrY2aHqV7PL9zjj-94">
          <mxGeometry x="180" y="150" width="130" height="50" as="geometry" />
        </mxCell>
        <mxCell id="hRhXeQrY2aHqV7PL9zjj-104" value="" style="endArrow=block;endSize=16;endFill=0;html=1;rounded=0;entryX=0.5;entryY=1;entryDx=0;entryDy=0;exitX=0.5;exitY=0;exitDx=0;exitDy=0;edgeStyle=orthogonalEdgeStyle;curved=1;" edge="1" parent="hRhXeQrY2aHqV7PL9zjj-94" source="hRhXeQrY2aHqV7PL9zjj-103" target="hRhXeQrY2aHqV7PL9zjj-95">
          <mxGeometry width="160" relative="1" as="geometry">
            <mxPoint x="560" y="120" as="sourcePoint" />
            <mxPoint x="720" y="120" as="targetPoint" />
          </mxGeometry>
        </mxCell>
        <mxCell id="hRhXeQrY2aHqV7PL9zjj-116" value="" style="endArrow=block;endSize=16;endFill=0;html=1;rounded=0;entryX=0.5;entryY=1;entryDx=0;entryDy=0;exitX=0.5;exitY=0;exitDx=0;exitDy=0;edgeStyle=orthogonalEdgeStyle;curved=1;" edge="1" parent="hRhXeQrY2aHqV7PL9zjj-94" source="hRhXeQrY2aHqV7PL9zjj-102" target="hRhXeQrY2aHqV7PL9zjj-95">
          <mxGeometry width="160" relative="1" as="geometry">
            <mxPoint x="160" y="150" as="sourcePoint" />
            <mxPoint x="320" y="150" as="targetPoint" />
          </mxGeometry>
        </mxCell>
        <mxCell id="hRhXeQrY2aHqV7PL9zjj-100" value="" style="endArrow=none;html=1;rounded=0;exitX=1;exitY=0.5;exitDx=0;exitDy=0;entryX=0.5;entryY=0.5;entryDx=0;entryDy=0;entryPerimeter=0;edgeStyle=orthogonalEdgeStyle;" edge="1" parent="1" source="hRhXeQrY2aHqV7PL9zjj-98" target="hRhXeQrY2aHqV7PL9zjj-50">
          <mxGeometry width="50" height="50" relative="1" as="geometry">
            <mxPoint x="-30" y="760" as="sourcePoint" />
            <mxPoint x="20" y="710" as="targetPoint" />
          </mxGeometry>
        </mxCell>
        <mxCell id="hRhXeQrY2aHqV7PL9zjj-119" value="&amp;lt;&amp;lt;extend&amp;gt;&amp;gt;" style="endArrow=classic;html=1;rounded=0;dashed=1;entryX=0;entryY=1;entryDx=0;entryDy=0;exitX=1;exitY=0.5;exitDx=0;exitDy=0;" edge="1" parent="1" source="hRhXeQrY2aHqV7PL9zjj-28" target="hRhXeQrY2aHqV7PL9zjj-118">
          <mxGeometry x="-0.0017" width="50" height="50" relative="1" as="geometry">
            <mxPoint x="-465" y="374" as="sourcePoint" />
            <mxPoint x="-210" y="345" as="targetPoint" />
            <mxPoint as="offset" />
          </mxGeometry>
        </mxCell>
        <mxCell id="hRhXeQrY2aHqV7PL9zjj-145" value="Account Management Service" style="swimlane;whiteSpace=wrap;html=1;fillColor=#f8cecc;strokeColor=#b85450;" vertex="1" parent="1">
          <mxGeometry x="-500" y="-560" width="290" height="220" as="geometry" />
        </mxCell>
        <mxCell id="hRhXeQrY2aHqV7PL9zjj-162" value="Manage Account Roles" style="ellipse;whiteSpace=wrap;html=1;" vertex="1" parent="hRhXeQrY2aHqV7PL9zjj-145">
          <mxGeometry x="90" y="50" width="150" height="50" as="geometry" />
        </mxCell>
        <mxCell id="hRhXeQrY2aHqV7PL9zjj-167" value="Deactivate Student Account" style="ellipse;whiteSpace=wrap;html=1;" vertex="1" parent="hRhXeQrY2aHqV7PL9zjj-145">
          <mxGeometry x="80" y="140" width="150" height="50" as="geometry" />
        </mxCell>
        <mxCell id="hRhXeQrY2aHqV7PL9zjj-158" style="rounded=0;orthogonalLoop=1;jettySize=auto;html=1;entryX=0;entryY=0;entryDx=0;entryDy=0;edgeStyle=orthogonalEdgeStyle;endArrow=none;endFill=0;" edge="1" parent="1" source="hRhXeQrY2aHqV7PL9zjj-157" target="baDIOxzghW0TllfMZs_H-5">
          <mxGeometry relative="1" as="geometry">
            <Array as="points">
              <mxPoint x="-600" y="-410" />
              <mxPoint x="-600" y="-270" />
              <mxPoint x="-360" y="-270" />
              <mxPoint x="-360" y="-264" />
            </Array>
          </mxGeometry>
        </mxCell>
        <mxCell id="hRhXeQrY2aHqV7PL9zjj-159" style="edgeStyle=orthogonalEdgeStyle;rounded=0;orthogonalLoop=1;jettySize=auto;html=1;entryX=0;entryY=0;entryDx=0;entryDy=0;endArrow=none;endFill=0;" edge="1" parent="1" source="hRhXeQrY2aHqV7PL9zjj-157" target="baDIOxzghW0TllfMZs_H-4">
          <mxGeometry relative="1" as="geometry">
            <Array as="points">
              <mxPoint x="-690" y="-390" />
              <mxPoint x="-690" y="-220" />
              <mxPoint x="-400" y="-220" />
              <mxPoint x="-400" y="-164" />
            </Array>
          </mxGeometry>
        </mxCell>
        <mxCell id="hRhXeQrY2aHqV7PL9zjj-168" style="edgeStyle=orthogonalEdgeStyle;rounded=0;orthogonalLoop=1;jettySize=auto;html=1;exitX=1;exitY=0.3333333333333333;exitDx=0;exitDy=0;exitPerimeter=0;entryX=0;entryY=0.5;entryDx=0;entryDy=0;endArrow=none;endFill=0;" edge="1" parent="1" source="hRhXeQrY2aHqV7PL9zjj-157" target="hRhXeQrY2aHqV7PL9zjj-167">
          <mxGeometry relative="1" as="geometry" />
        </mxCell>
        <mxCell id="hRhXeQrY2aHqV7PL9zjj-157" value="School&lt;br&gt;Administrator" style="shape=umlActor;verticalLabelPosition=bottom;verticalAlign=top;html=1;outlineConnect=0;" vertex="1" parent="1">
          <mxGeometry x="-760" y="-440" width="40" height="60" as="geometry" />
        </mxCell>
        <mxCell id="hRhXeQrY2aHqV7PL9zjj-163" value="" style="endArrow=none;html=1;rounded=0;entryX=0;entryY=0.5;entryDx=0;entryDy=0;edgeStyle=orthogonalEdgeStyle;exitX=0.75;exitY=0.1;exitDx=0;exitDy=0;exitPerimeter=0;" edge="1" parent="1" source="hRhXeQrY2aHqV7PL9zjj-157" target="hRhXeQrY2aHqV7PL9zjj-162">
          <mxGeometry width="50" height="50" relative="1" as="geometry">
            <mxPoint x="-690" y="-410" as="sourcePoint" />
            <mxPoint x="-120" y="-330" as="targetPoint" />
            <Array as="points">
              <mxPoint x="-730" y="-440" />
              <mxPoint x="-550" y="-440" />
              <mxPoint x="-550" y="-485" />
            </Array>
          </mxGeometry>
        </mxCell>
        <mxCell id="hRhXeQrY2aHqV7PL9zjj-165" value="" style="endArrow=none;html=1;rounded=0;exitX=1;exitY=1;exitDx=0;exitDy=0;exitPerimeter=0;entryX=0;entryY=0.5;entryDx=0;entryDy=0;edgeStyle=orthogonalEdgeStyle;" edge="1" parent="1" source="hRhXeQrY2aHqV7PL9zjj-157" target="hRhXeQrY2aHqV7PL9zjj-164">
          <mxGeometry width="50" height="50" relative="1" as="geometry">
            <mxPoint x="-330" y="-120" as="sourcePoint" />
            <mxPoint x="-280" y="-170" as="targetPoint" />
            <Array as="points">
              <mxPoint x="-710" y="-380" />
              <mxPoint x="-710" y="15" />
            </Array>
          </mxGeometry>
        </mxCell>
        <mxCell id="hRhXeQrY2aHqV7PL9zjj-166" style="edgeStyle=orthogonalEdgeStyle;rounded=0;orthogonalLoop=1;jettySize=auto;html=1;exitX=0;exitY=1;exitDx=0;exitDy=0;entryX=0.5;entryY=0.5;entryDx=0;entryDy=0;entryPerimeter=0;endArrow=none;endFill=0;" edge="1" parent="1" source="hRhXeQrY2aHqV7PL9zjj-98" target="hRhXeQrY2aHqV7PL9zjj-157">
          <mxGeometry relative="1" as="geometry">
            <Array as="points">
              <mxPoint x="-214" y="1100" />
              <mxPoint x="-820" y="1100" />
              <mxPoint x="-820" y="-410" />
            </Array>
          </mxGeometry>
        </mxCell>
      </root>
    </mxGraphModel>
  </diagram>
</mxfile>
